<svg xmlns="http://www.w3.org/2000/svg" viewBox="0 0 512 512" width="512" height="512" fill="none" stroke="#000" stroke-width="14" stroke-linecap="round" stroke-linejoin="round">
<circle cx="256" cy="156" r="40"/>
<circle cx="256" cy="156" r="12" fill="#000" stroke="none"/>
<circle cx="156" cy="296" r="28"/>
<circle cx="256" cy="296" r="28"/>
<circle cx="356" cy="296" r="28"/>
<circle cx="156" cy="296" r="8" fill="#000" stroke="none"/>
<circle cx="256" cy="296" r="8" fill="#000" stroke="none"/>
<circle cx="356" cy="296" r="8" fill="#000" stroke="none"/>
<line x1="256" y1="196" x2="256" y2="268"/>
<line x1="256" y1="268" x2="156" y2="268"/>
<line x1="256" y1="268" x2="356" y2="268"/>
<line x1="156" y1="268" x2="156" y2="268"/>
<line x1="356" y1="268" x2="356" y2="268"/>
<line x1="156" y1="324" x2="156" y2="376"/>
<circle cx="156" cy="384" r="9" fill="#000" stroke="none"/>
<line x1="256" y1="324" x2="256" y2="376"/>
<circle cx="256" cy="384" r="9" fill="#000" stroke="none"/>
<line x1="356" y1="324" x2="356" y2="376"/>
<circle cx="356" cy="384" r="9" fill="#000" stroke="none"/>
</svg>
