<svg xmlns="http://www.w3.org/2000/svg" viewBox="0 0 512 512" width="512" height="512" fill="none" stroke="#000" stroke-width="14" stroke-linecap="round" stroke-linejoin="round">
<rect x="176" y="76" width="160" height="360" rx="20"/>
<circle cx="256" cy="156" r="36"/>
<circle cx="256" cy="256" r="36"/>
<circle cx="256" cy="356" r="36"/>
<circle cx="256" cy="156" r="12" fill="#000" stroke="none"/>
<circle cx="256" cy="256" r="12" fill="#000" stroke="none"/>
<circle cx="256" cy="356" r="12" fill="#000" stroke="none"/>
<line x1="176" y1="156" x2="136" y2="156"/>
<circle cx="128" cy="156" r="9" fill="#000" stroke="none"/>
<line x1="336" y1="156" x2="376" y2="156"/>
<circle cx="384" cy="156" r="9" fill="#000" stroke="none"/>
<line x1="176" y1="256" x2="136" y2="256"/>
<circle cx="128" cy="256" r="9" fill="#000" stroke="none"/>
<line x1="336" y1="256" x2="376" y2="256"/>
<circle cx="384" cy="256" r="9" fill="#000" stroke="none"/>
<line x1="176" y1="356" x2="136" y2="356"/>
<circle cx="128" cy="356" r="9" fill="#000" stroke="none"/>
<line x1="336" y1="356" x2="376" y2="356"/>
<circle cx="384" cy="356" r="9" fill="#000" stroke="none"/>
</svg>
